# Blender 4.1.1
# www.blender.org
mtllib Attack.mtl
o Cube
v -3.000000 19.000000 0.600000
v -3.000000 -19.000000 0.600000
v -3.000000 19.000000 -0.600000
v -3.000000 -19.000000 -0.600000
v 3.000000 19.000000 0.600000
v 1.158925 -19.000000 0.600000
v 3.000000 19.000000 -0.600000
v 1.158925 -19.000000 -0.600000
v -3.000000 11.400001 0.600000
v -1.671347 3.800000 0.600000
v -3.000000 -3.800000 0.600000
v -1.634425 -11.796712 0.600000
v 3.000000 -11.400001 -0.600000
v 0.865558 -4.951336 -0.600000
v 3.000000 3.800000 -0.600000
v 0.855860 10.429135 -0.600000
v -3.000000 11.400001 -0.600000
v -1.671347 3.800000 -0.600000
v -3.000000 -3.800000 -0.600000
v -1.634425 -11.796712 -0.600000
v 0.855860 10.429135 0.600000
v 3.000000 3.800000 0.600000
v 0.865558 -4.951336 0.600000
v 3.000000 -11.400001 0.600000
vn -0.0000 1.0000 -0.0000
vn -0.0000 -0.0000 -1.0000
vn 0.9701 -0.2427 -0.0000
vn -0.0000 -1.0000 -0.0000
vn -1.0000 -0.0000 -0.0000
vn -0.0000 -0.0000 1.0000
vn -0.9825 0.1863 -0.0000
vn -0.9857 -0.1683 -0.0000
vn -0.9851 0.1722 -0.0000
vn -0.9851 -0.1722 -0.0000
vn 0.9719 -0.2354 -0.0000
vn 0.9493 0.3142 -0.0000
vn 0.9715 -0.2370 -0.0000
vn 0.9515 0.3077 -0.0000
vt 0.625000 0.500000
vt 0.875000 0.500000
vt 0.875000 0.750000
vt 0.625000 0.750000
vt 0.575000 0.750000
vt 0.625000 1.000000
vt 0.575000 1.000000
vt 0.575000 0.000000
vt 0.625000 0.000000
vt 0.625000 0.250000
vt 0.575000 0.250000
vt 0.125000 0.500000
vt 0.375000 0.500000
vt 0.375000 0.750000
vt 0.125000 0.750000
vt 0.575000 0.500000
vt 0.375000 0.250000
vt 0.425000 0.250000
vt 0.425000 0.500000
vt 0.475000 0.250000
vt 0.475000 0.500000
vt 0.525000 0.250000
vt 0.525000 0.500000
vt 0.425000 0.750000
vt 0.475000 0.750000
vt 0.525000 0.750000
vt 0.375000 0.000000
vt 0.425000 0.000000
vt 0.475000 0.000000
vt 0.525000 0.000000
vt 0.425000 1.000000
vt 0.375000 1.000000
vt 0.475000 1.000000
vt 0.525000 1.000000
s 0
usemtl Material
f 1/1/1 5/2/1 7/3/1 3/4/1
f 17/5/2 3/4/2 7/6/2 16/7/2
f 16/8/3 7/9/3 5/10/3 21/11/3
f 6/12/4 2/13/4 4/14/4 8/15/4
f 9/16/5 1/1/5 3/4/5 17/5/5
f 21/11/6 5/10/6 1/1/6 9/16/6
f 6/17/6 24/18/6 12/19/6 2/13/6
f 24/18/6 23/20/6 11/21/6 12/19/6
f 23/20/6 22/22/6 10/23/6 11/21/6
f 22/22/6 21/11/6 9/16/6 10/23/6
f 2/13/7 12/19/7 20/24/7 4/14/7
f 12/19/8 11/21/8 19/25/8 20/24/8
f 11/21/9 10/23/9 18/26/9 19/25/9
f 10/23/10 9/16/10 17/5/10 18/26/10
f 8/27/11 13/28/11 24/18/11 6/17/11
f 13/28/12 14/29/12 23/20/12 24/18/12
f 14/29/13 15/30/13 22/22/13 23/20/13
f 15/30/14 16/8/14 21/11/14 22/22/14
f 4/14/2 20/24/2 13/31/2 8/32/2
f 20/24/2 19/25/2 14/33/2 13/31/2
f 19/25/2 18/26/2 15/34/2 14/33/2
f 18/26/2 17/5/2 16/7/2 15/34/2
