# Blender 4.1.1
# www.blender.org
mtllib Stage.mtl
o 円柱
v 0.000000 -17.719910 -0.100681
v 0.000000 17.719910 -0.100681
v 0.019642 -17.719910 -0.098747
v 0.019642 17.719910 -0.098747
v 0.038529 -17.719910 -0.093017
v 0.038529 17.719910 -0.093017
v 0.055936 -17.719910 -0.083713
v 0.055936 17.719910 -0.083713
v 0.071192 -17.719910 -0.071192
v 0.071192 17.719910 -0.071192
v 0.083713 -17.719910 -0.055936
v 0.083713 17.719910 -0.055936
v 0.093017 -17.719910 -0.038529
v 0.093017 17.719910 -0.038529
v 0.098747 -17.719910 -0.019642
v 0.098747 17.719910 -0.019642
v 0.100681 -17.719910 0.000000
v 0.100681 17.719910 0.000000
v 0.098747 -17.719910 0.019642
v 0.098747 17.719910 0.019642
v 0.093017 -17.719910 0.038529
v 0.093017 17.719910 0.038529
v 0.083713 -17.719910 0.055936
v 0.083713 17.719910 0.055936
v 0.071192 -17.719910 0.071192
v 0.071192 17.719910 0.071192
v 0.055936 -17.719910 0.083713
v 0.055936 17.719910 0.083713
v 0.038529 -17.719910 0.093017
v 0.038529 17.719910 0.093017
v 0.019642 -17.719910 0.098747
v 0.019642 17.719910 0.098747
v 0.000000 -17.719910 0.100681
v 0.000000 17.719910 0.100681
v -0.019642 -17.719910 0.098747
v -0.019642 17.719910 0.098747
v -0.038529 -17.719910 0.093017
v -0.038529 17.719910 0.093017
v -0.055936 -17.719910 0.083713
v -0.055936 17.719910 0.083713
v -0.071192 -17.719910 0.071192
v -0.071192 17.719910 0.071192
v -0.083713 -17.719910 0.055936
v -0.083713 17.719910 0.055936
v -0.093017 -17.719910 0.038529
v -0.093017 17.719910 0.038529
v -0.098747 -17.719910 0.019642
v -0.098747 17.719910 0.019642
v -0.100681 -17.719910 0.000000
v -0.100681 17.719910 0.000000
v -0.098747 -17.719910 -0.019642
v -0.098747 17.719910 -0.019642
v -0.093017 -17.719910 -0.038529
v -0.093017 17.719910 -0.038529
v -0.083713 -17.719910 -0.055936
v -0.083713 17.719910 -0.055936
v -0.071192 -17.719910 -0.071192
v -0.071192 17.719910 -0.071192
v -0.055936 -17.719910 -0.083713
v -0.055936 17.719910 -0.083713
v -0.038529 -17.719910 -0.093017
v -0.038529 17.719910 -0.093017
v -0.019642 -17.719910 -0.098747
v -0.019642 17.719910 -0.098747
v 19.999998 -17.719910 -0.100681
v 19.999998 17.719910 -0.100681
v 20.019640 -17.719910 -0.098747
v 20.019640 17.719910 -0.098747
v 20.038528 -17.719910 -0.093017
v 20.038528 17.719910 -0.093017
v 20.055933 -17.719910 -0.083713
v 20.055933 17.719910 -0.083713
v 20.071190 -17.719910 -0.071192
v 20.071190 17.719910 -0.071192
v 20.083712 -17.719910 -0.055936
v 20.083712 17.719910 -0.055936
v 20.093016 -17.719910 -0.038529
v 20.093016 17.719910 -0.038529
v 20.098745 -17.719910 -0.019642
v 20.098745 17.719910 -0.019642
v 20.100679 -17.719910 0.000000
v 20.100679 17.719910 0.000000
v 20.098745 -17.719910 0.019642
v 20.098745 17.719910 0.019642
v 20.093016 -17.719910 0.038529
v 20.093016 17.719910 0.038529
v 20.083712 -17.719910 0.055936
v 20.083712 17.719910 0.055936
v 20.071190 -17.719910 0.071192
v 20.071190 17.719910 0.071192
v 20.055933 -17.719910 0.083713
v 20.055933 17.719910 0.083713
v 20.038528 -17.719910 0.093017
v 20.038528 17.719910 0.093017
v 20.019640 -17.719910 0.098747
v 20.019640 17.719910 0.098747
v 19.999998 -17.719910 0.100681
v 19.999998 17.719910 0.100681
v 19.980356 -17.719910 0.098747
v 19.980356 17.719910 0.098747
v 19.961468 -17.719910 0.093017
v 19.961468 17.719910 0.093017
v 19.944063 -17.719910 0.083713
v 19.944063 17.719910 0.083713
v 19.928806 -17.719910 0.071192
v 19.928806 17.719910 0.071192
v 19.916285 -17.719910 0.055936
v 19.916285 17.719910 0.055936
v 19.906981 -17.719910 0.038529
v 19.906981 17.719910 0.038529
v 19.901251 -17.719910 0.019642
v 19.901251 17.719910 0.019642
v 19.899317 -17.719910 0.000000
v 19.899317 17.719910 0.000000
v 19.901251 -17.719910 -0.019642
v 19.901251 17.719910 -0.019642
v 19.906981 -17.719910 -0.038529
v 19.906981 17.719910 -0.038529
v 19.916285 -17.719910 -0.055936
v 19.916285 17.719910 -0.055936
v 19.928806 -17.719910 -0.071192
v 19.928806 17.719910 -0.071192
v 19.944063 -17.719910 -0.083713
v 19.944063 17.719910 -0.083713
v 19.961468 -17.719910 -0.093017
v 19.961468 17.719910 -0.093017
v 19.980356 -17.719910 -0.098747
v 19.980356 17.719910 -0.098747
v -19.999998 -17.719910 -0.100681
v -19.999998 17.719910 -0.100681
v -19.980356 -17.719910 -0.098747
v -19.980356 17.719910 -0.098747
v -19.961468 -17.719910 -0.093017
v -19.961468 17.719910 -0.093017
v -19.944063 -17.719910 -0.083713
v -19.944063 17.719910 -0.083713
v -19.928806 -17.719910 -0.071192
v -19.928806 17.719910 -0.071192
v -19.916285 -17.719910 -0.055936
v -19.916285 17.719910 -0.055936
v -19.906981 -17.719910 -0.038529
v -19.906981 17.719910 -0.038529
v -19.901251 -17.719910 -0.019642
v -19.901251 17.719910 -0.019642
v -19.899317 -17.719910 0.000000
v -19.899317 17.719910 0.000000
v -19.901251 -17.719910 0.019642
v -19.901251 17.719910 0.019642
v -19.906981 -17.719910 0.038529
v -19.906981 17.719910 0.038529
v -19.916285 -17.719910 0.055936
v -19.916285 17.719910 0.055936
v -19.928806 -17.719910 0.071192
v -19.928806 17.719910 0.071192
v -19.944063 -17.719910 0.083713
v -19.944063 17.719910 0.083713
v -19.961468 -17.719910 0.093017
v -19.961468 17.719910 0.093017
v -19.980356 -17.719910 0.098747
v -19.980356 17.719910 0.098747
v -19.999998 -17.719910 0.100681
v -19.999998 17.719910 0.100681
v -20.019640 -17.719910 0.098747
v -20.019640 17.719910 0.098747
v -20.038528 -17.719910 0.093017
v -20.038528 17.719910 0.093017
v -20.055933 -17.719910 0.083713
v -20.055933 17.719910 0.083713
v -20.071190 -17.719910 0.071192
v -20.071190 17.719910 0.071192
v -20.083712 -17.719910 0.055936
v -20.083712 17.719910 0.055936
v -20.093016 -17.719910 0.038529
v -20.093016 17.719910 0.038529
v -20.098745 -17.719910 0.019642
v -20.098745 17.719910 0.019642
v -20.100679 -17.719910 0.000000
v -20.100679 17.719910 0.000000
v -20.098745 -17.719910 -0.019642
v -20.098745 17.719910 -0.019642
v -20.093016 -17.719910 -0.038529
v -20.093016 17.719910 -0.038529
v -20.083712 -17.719910 -0.055936
v -20.083712 17.719910 -0.055936
v -20.071190 -17.719910 -0.071192
v -20.071190 17.719910 -0.071192
v -20.055933 -17.719910 -0.083713
v -20.055933 17.719910 -0.083713
v -20.038528 -17.719910 -0.093017
v -20.038528 17.719910 -0.093017
v -20.019640 -17.719910 -0.098747
v -20.019640 17.719910 -0.098747
v -39.999996 -22.000000 1.000000
v -39.999996 -17.600000 1.000000
v -39.999996 -22.000000 -1.000000
v -39.999996 -17.600000 -1.000000
v 39.999996 -22.000000 1.000000
v 39.999996 -17.600000 1.000000
v 39.999996 -22.000000 -1.000000
v 39.999996 -17.600000 -1.000000
v -39.999996 17.600000 1.000000
v -39.999996 22.000000 1.000000
v -39.999996 17.600000 -1.000000
v -39.999996 22.000000 -1.000000
v 39.999996 17.600000 1.000000
v 39.999996 22.000000 1.000000
v 39.999996 17.600000 -1.000000
v 39.999996 22.000000 -1.000000
vn 0.0980 -0.0000 -0.9952
vn 0.2903 -0.0000 -0.9569
vn 0.4714 -0.0000 -0.8819
vn 0.6344 -0.0000 -0.7730
vn 0.7730 -0.0000 -0.6344
vn 0.8819 -0.0000 -0.4714
vn 0.9569 -0.0000 -0.2903
vn 0.9952 -0.0000 -0.0980
vn 0.9952 -0.0000 0.0980
vn 0.9569 -0.0000 0.2903
vn 0.8819 -0.0000 0.4714
vn 0.7730 -0.0000 0.6344
vn 0.6344 -0.0000 0.7730
vn 0.4714 -0.0000 0.8819
vn 0.2903 -0.0000 0.9569
vn 0.0980 -0.0000 0.9952
vn -0.0980 -0.0000 0.9952
vn -0.2903 -0.0000 0.9569
vn -0.4714 -0.0000 0.8819
vn -0.6344 -0.0000 0.7730
vn -0.7730 -0.0000 0.6344
vn -0.8819 -0.0000 0.4714
vn -0.9569 -0.0000 0.2903
vn -0.9952 -0.0000 0.0980
vn -0.9952 -0.0000 -0.0980
vn -0.9569 -0.0000 -0.2903
vn -0.8819 -0.0000 -0.4714
vn -0.7730 -0.0000 -0.6344
vn -0.6344 -0.0000 -0.7730
vn -0.4714 -0.0000 -0.8819
vn -0.0000 1.0000 -0.0000
vn -0.2903 -0.0000 -0.9569
vn -0.0980 -0.0000 -0.9952
vn -0.0000 -1.0000 -0.0000
vn 0.9952 -0.0000 -0.0979
vn 0.9952 -0.0000 0.0981
vn 0.2902 -0.0000 0.9570
vn -0.9952 -0.0000 0.0979
vn -0.9952 -0.0000 -0.0981
vn -0.2902 -0.0000 -0.9570
vn -1.0000 -0.0000 -0.0000
vn -0.0000 -0.0000 -1.0000
vn 1.0000 -0.0000 -0.0000
vn -0.0000 -0.0000 1.0000
vn 0.0005 1.0000 -0.0000
vn 0.0001 -1.0000 -0.0000
vn -0.0002 -1.0000 -0.0000
vn -0.0001 -1.0000 -0.0000
vn 0.0002 -1.0000 -0.0000
vn 0.2902 -0.0000 -0.9570
vn 0.9952 -0.0000 -0.0981
vn 0.9952 -0.0000 0.0979
vn -0.2902 -0.0000 0.9570
vn -0.9952 -0.0000 0.0981
vn -0.9952 -0.0000 -0.0979
vn 0.0002 1.0000 -0.0000
vn -0.0002 1.0000 -0.0000
vt 1.000000 1.000000
vt 0.968750 0.500000
vt 1.000000 0.500000
vt 0.968750 1.000000
vt 0.937500 0.500000
vt 0.937500 1.000000
vt 0.906250 0.500000
vt 0.906250 1.000000
vt 0.875000 0.500000
vt 0.875000 1.000000
vt 0.843750 0.500000
vt 0.843750 1.000000
vt 0.812500 0.500000
vt 0.812500 1.000000
vt 0.781250 0.500000
vt 0.781250 1.000000
vt 0.750000 0.500000
vt 0.750000 1.000000
vt 0.718750 0.500000
vt 0.718750 1.000000
vt 0.687500 0.500000
vt 0.687500 1.000000
vt 0.656250 0.500000
vt 0.656250 1.000000
vt 0.625000 0.500000
vt 0.625000 1.000000
vt 0.593750 0.500000
vt 0.593750 1.000000
vt 0.562500 0.500000
vt 0.562500 1.000000
vt 0.531250 0.500000
vt 0.531250 1.000000
vt 0.500000 0.500000
vt 0.500000 1.000000
vt 0.468750 0.500000
vt 0.468750 1.000000
vt 0.437500 0.500000
vt 0.437500 1.000000
vt 0.406250 0.500000
vt 0.406250 1.000000
vt 0.375000 0.500000
vt 0.375000 1.000000
vt 0.343750 0.500000
vt 0.343750 1.000000
vt 0.312500 0.500000
vt 0.312500 1.000000
vt 0.281250 0.500000
vt 0.281250 1.000000
vt 0.250000 0.500000
vt 0.250000 1.000000
vt 0.218750 0.500000
vt 0.218750 1.000000
vt 0.187500 0.500000
vt 0.187500 1.000000
vt 0.156250 0.500000
vt 0.156250 1.000000
vt 0.125000 0.500000
vt 0.125000 1.000000
vt 0.093750 0.500000
vt 0.093750 1.000000
vt 0.062500 0.500000
vt 0.158156 0.028269
vt 0.471731 0.158156
vt 0.341844 0.471731
vt 0.062500 1.000000
vt 0.031250 0.500000
vt 0.031250 1.000000
vt 0.000000 0.500000
vt 0.796822 0.014612
vt 0.514612 0.203178
vt 0.703178 0.485388
vt 0.471731 0.341844
vt 0.028269 0.341844
vt 0.528269 0.158156
vt 0.550447 0.383337
vt 0.625000 0.000000
vt 0.375000 0.250000
vt 0.375000 0.000000
vt 0.625000 0.250000
vt 0.375000 0.750000
vt 0.625000 0.750000
vt 0.125000 0.750000
vt 0.296822 0.485388
vt 0.250000 0.490000
vt 0.203178 0.485388
vt 0.158156 0.471731
vt 0.116663 0.449553
vt 0.080294 0.419706
vt 0.050447 0.383337
vt 0.014612 0.296822
vt 0.010000 0.250000
vt 0.014612 0.203178
vt 0.028269 0.158156
vt 0.050447 0.116663
vt 0.080294 0.080294
vt 0.116663 0.050447
vt 0.203178 0.014612
vt 0.341844 0.028269
vt 0.250000 0.010000
vt 0.296822 0.014612
vt 0.383337 0.050447
vt 0.419706 0.080294
vt 0.449553 0.116663
vt 0.485388 0.203178
vt 0.490000 0.250000
vt 0.485388 0.296822
vt 0.449553 0.383337
vt 0.419706 0.419706
vt 0.383337 0.449553
vt 0.000000 1.000000
vt 0.750000 0.490000
vt 0.796822 0.485388
vt 0.841844 0.471731
vt 0.883337 0.449553
vt 0.919706 0.419706
vt 0.949553 0.383337
vt 0.971731 0.341844
vt 0.985388 0.296822
vt 0.990000 0.250000
vt 0.985388 0.203178
vt 0.971731 0.158156
vt 0.949553 0.116663
vt 0.919706 0.080294
vt 0.883337 0.050447
vt 0.841844 0.028269
vt 0.750000 0.010000
vt 0.703178 0.014612
vt 0.658156 0.028269
vt 0.616663 0.050447
vt 0.580294 0.080294
vt 0.550447 0.116663
vt 0.510000 0.250000
vt 0.514612 0.296822
vt 0.528269 0.341844
vt 0.580294 0.419706
vt 0.616663 0.449553
vt 0.658156 0.471731
vt 0.875000 0.750000
s 0
usemtl マテリアル.001
f 2/1/1 3/2/1 1/3/1
f 4/4/2 5/5/2 3/2/2
f 6/6/3 7/7/3 5/5/3
f 8/8/4 9/9/4 7/7/4
f 10/10/5 11/11/5 9/9/5
f 12/12/6 13/13/6 11/11/6
f 14/14/7 15/15/7 13/13/7
f 16/16/8 17/17/8 15/15/8
f 18/18/9 19/19/9 17/17/9
f 20/20/10 21/21/10 19/19/10
f 22/22/11 23/23/11 21/21/11
f 24/24/12 25/25/12 23/23/12
f 26/26/13 27/27/13 25/25/13
f 28/28/14 29/29/14 27/27/14
f 30/30/15 31/31/15 29/29/15
f 32/32/16 33/33/16 31/31/16
f 34/34/17 35/35/17 33/33/17
f 36/36/18 37/37/18 35/35/18
f 38/38/19 39/39/19 37/37/19
f 40/40/20 41/41/20 39/39/20
f 42/42/21 43/43/21 41/41/21
f 44/44/22 45/45/22 43/43/22
f 46/46/23 47/47/23 45/45/23
f 48/48/24 49/49/24 47/47/24
f 50/50/25 51/51/25 49/49/25
f 52/52/26 53/53/26 51/51/26
f 54/54/27 55/55/27 53/53/27
f 56/56/28 57/57/28 55/55/28
f 58/58/29 59/59/29 57/57/29
f 60/60/30 61/61/30 59/59/30
f 38/62/31 22/63/31 6/64/31
f 62/65/32 63/66/32 61/61/32
f 64/67/33 1/68/33 63/66/33
f 31/69/34 47/70/34 63/71/34
f 66/1/1 67/2/1 65/3/1
f 68/4/2 69/5/2 67/2/2
f 70/6/3 71/7/3 69/5/3
f 72/8/4 73/9/4 71/7/4
f 74/10/5 75/11/5 73/9/5
f 76/12/6 77/13/6 75/11/6
f 78/14/7 79/15/7 77/13/7
f 80/16/35 81/17/35 79/15/35
f 82/18/36 83/19/36 81/17/36
f 84/20/10 85/21/10 83/19/10
f 86/22/11 87/23/11 85/21/11
f 88/24/12 89/25/12 87/23/12
f 90/26/13 91/27/13 89/25/13
f 92/28/14 93/29/14 91/27/14
f 94/30/37 95/31/37 93/29/37
f 96/32/16 97/33/16 95/31/16
f 98/34/17 99/35/17 97/33/17
f 100/36/18 101/37/18 99/35/18
f 102/38/19 103/39/19 101/37/19
f 104/40/20 105/41/20 103/39/20
f 106/42/21 107/43/21 105/41/21
f 108/44/22 109/45/22 107/43/22
f 110/46/23 111/47/23 109/45/23
f 112/48/38 113/49/38 111/47/38
f 114/50/39 115/51/39 113/49/39
f 116/52/26 117/53/26 115/51/26
f 118/54/27 119/55/27 117/53/27
f 120/56/28 121/57/28 119/55/28
f 122/58/29 123/59/29 121/57/29
f 124/60/30 125/61/30 123/59/30
f 86/63/31 78/72/31 118/73/31
f 126/65/40 127/66/40 125/61/40
f 128/67/33 65/68/33 127/66/33
f 127/71/34 109/74/34 119/75/34
f 130/1/1 131/2/1 129/3/1
f 132/4/2 133/5/2 131/2/2
f 134/6/3 135/7/3 133/5/3
f 136/8/4 137/9/4 135/7/4
f 138/10/5 139/11/5 137/9/5
f 140/12/6 141/13/6 139/11/6
f 142/14/7 143/15/7 141/13/7
f 144/16/35 145/17/35 143/15/35
f 146/18/36 147/19/36 145/17/36
f 148/20/10 149/21/10 147/19/10
f 150/22/11 151/23/11 149/21/11
f 152/24/12 153/25/12 151/23/12
f 154/26/13 155/27/13 153/25/13
f 156/28/14 157/29/14 155/27/14
f 158/30/37 159/31/37 157/29/37
f 160/32/16 161/33/16 159/31/16
f 162/34/17 163/35/17 161/33/17
f 164/36/18 165/37/18 163/35/18
f 166/38/19 167/39/19 165/37/19
f 168/40/20 169/41/20 167/39/20
f 170/42/21 171/43/21 169/41/21
f 172/44/22 173/45/22 171/43/22
f 174/46/23 175/47/23 173/45/23
f 176/48/38 177/49/38 175/47/38
f 178/50/39 179/51/39 177/49/39
f 180/52/26 181/53/26 179/51/26
f 182/54/27 183/55/27 181/53/27
f 184/56/28 185/57/28 183/55/28
f 186/58/29 187/59/29 185/57/29
f 188/60/30 189/61/30 187/59/30
f 150/63/31 142/72/31 182/73/31
f 190/65/40 191/66/40 189/61/40
f 192/67/33 129/68/33 191/66/33
f 191/71/34 173/74/34 183/75/34
f 194/76/41 195/77/41 193/78/41
f 196/79/42 199/41/42 195/77/42
f 200/25/43 197/80/43 199/41/43
f 198/81/44 193/42/44 197/80/44
f 199/41/34 193/82/34 195/57/34
f 196/9/31 198/81/31 200/25/31
f 202/76/41 203/77/41 201/78/41
f 204/79/42 207/41/42 203/77/42
f 208/25/43 205/80/43 207/41/43
f 206/81/44 201/42/44 205/80/44
f 207/41/34 201/82/34 203/57/34
f 204/9/31 206/81/31 208/25/31
f 2/1/1 4/4/1 3/2/1
f 4/4/2 6/6/2 5/5/2
f 6/6/3 8/8/3 7/7/3
f 8/8/4 10/10/4 9/9/4
f 10/10/5 12/12/5 11/11/5
f 12/12/6 14/14/6 13/13/6
f 14/14/7 16/16/7 15/15/7
f 16/16/8 18/18/8 17/17/8
f 18/18/9 20/20/9 19/19/9
f 20/20/10 22/22/10 21/21/10
f 22/22/11 24/24/11 23/23/11
f 24/24/12 26/26/12 25/25/12
f 26/26/13 28/28/13 27/27/13
f 28/28/14 30/30/14 29/29/14
f 30/30/15 32/32/15 31/31/15
f 32/32/16 34/34/16 33/33/16
f 34/34/17 36/36/17 35/35/17
f 36/36/18 38/38/18 37/37/18
f 38/38/19 40/40/19 39/39/19
f 40/40/20 42/42/20 41/41/20
f 42/42/21 44/44/21 43/43/21
f 44/44/22 46/46/22 45/45/22
f 46/46/23 48/48/23 47/47/23
f 48/48/24 50/50/24 49/49/24
f 50/50/25 52/52/25 51/51/25
f 52/52/26 54/54/26 53/53/26
f 54/54/27 56/56/27 55/55/27
f 56/56/28 58/58/28 57/57/28
f 58/58/29 60/60/29 59/59/29
f 60/60/30 62/65/30 61/61/30
f 6/64/31 4/83/31 2/84/31
f 2/84/31 64/85/31 6/64/31
f 64/85/31 62/86/31 6/64/31
f 62/86/31 60/87/31 58/88/31
f 58/88/31 56/89/31 54/73/31
f 54/73/31 52/90/31 50/91/31
f 50/91/31 48/92/31 54/73/31
f 48/92/31 46/93/31 54/73/31
f 46/93/31 44/94/31 42/95/31
f 42/95/31 40/96/31 38/62/31
f 38/62/31 36/97/31 30/98/31
f 36/97/31 34/99/31 30/98/31
f 34/99/31 32/100/31 30/98/31
f 30/98/31 28/101/31 26/102/31
f 26/102/31 24/103/31 22/63/31
f 22/63/31 20/104/31 14/72/31
f 20/104/45 18/105/45 14/72/45
f 18/105/31 16/106/31 14/72/31
f 14/72/31 12/107/31 10/108/31
f 10/108/31 8/109/31 6/64/31
f 62/86/31 58/88/31 6/64/31
f 58/88/31 54/73/31 6/64/31
f 46/93/31 42/95/31 54/73/31
f 42/95/31 38/62/31 54/73/31
f 30/98/31 26/102/31 38/62/31
f 26/102/31 22/63/31 38/62/31
f 14/72/31 10/108/31 22/63/31
f 10/108/31 6/64/31 22/63/31
f 6/64/31 54/73/31 38/62/31
f 62/65/32 64/67/32 63/66/32
f 64/67/33 2/110/33 1/68/33
f 63/71/34 1/111/34 3/112/34
f 3/112/34 5/113/34 7/114/34
f 7/114/34 9/115/34 11/116/34
f 11/116/34 13/117/34 15/118/34
f 15/118/34 17/119/34 19/120/34
f 19/120/34 21/121/34 23/122/34
f 23/122/34 25/123/34 27/124/34
f 27/124/34 29/125/34 31/69/34
f 31/69/34 33/126/34 35/127/34
f 35/127/34 37/128/34 39/129/34
f 39/129/34 41/130/34 43/131/34
f 43/131/34 45/74/34 47/70/34
f 47/70/34 49/132/34 51/133/34
f 51/133/34 53/134/34 55/75/34
f 55/75/34 57/135/34 59/136/34
f 59/136/34 61/137/34 63/71/34
f 63/71/34 3/112/34 15/118/34
f 3/112/46 7/114/46 15/118/46
f 7/114/47 11/116/47 15/118/47
f 15/118/48 19/120/48 31/69/48
f 19/120/46 23/122/46 31/69/46
f 23/122/34 27/124/34 31/69/34
f 31/69/34 35/127/34 47/70/34
f 35/127/48 39/129/48 47/70/48
f 39/129/49 43/131/49 47/70/49
f 47/70/46 51/133/46 63/71/46
f 51/133/48 55/75/48 63/71/48
f 55/75/34 59/136/34 63/71/34
f 63/71/34 15/118/34 31/69/34
f 66/1/1 68/4/1 67/2/1
f 68/4/50 70/6/50 69/5/50
f 70/6/3 72/8/3 71/7/3
f 72/8/4 74/10/4 73/9/4
f 74/10/5 76/12/5 75/11/5
f 76/12/6 78/14/6 77/13/6
f 78/14/7 80/16/7 79/15/7
f 80/16/51 82/18/51 81/17/51
f 82/18/52 84/20/52 83/19/52
f 84/20/10 86/22/10 85/21/10
f 86/22/11 88/24/11 87/23/11
f 88/24/12 90/26/12 89/25/12
f 90/26/13 92/28/13 91/27/13
f 92/28/14 94/30/14 93/29/14
f 94/30/15 96/32/15 95/31/15
f 96/32/16 98/34/16 97/33/16
f 98/34/17 100/36/17 99/35/17
f 100/36/53 102/38/53 101/37/53
f 102/38/19 104/40/19 103/39/19
f 104/40/20 106/42/20 105/41/20
f 106/42/21 108/44/21 107/43/21
f 108/44/22 110/46/22 109/45/22
f 110/46/23 112/48/23 111/47/23
f 112/48/54 114/50/54 113/49/54
f 114/50/55 116/52/55 115/51/55
f 116/52/26 118/54/26 117/53/26
f 118/54/27 120/56/27 119/55/27
f 120/56/28 122/58/28 121/57/28
f 122/58/29 124/60/29 123/59/29
f 124/60/30 126/65/30 125/61/30
f 70/64/31 68/83/31 78/72/31
f 68/83/31 66/84/31 78/72/31
f 66/84/31 128/85/31 118/73/31
f 128/85/31 126/86/31 118/73/31
f 126/86/56 124/87/56 118/73/56
f 124/87/31 122/88/31 118/73/31
f 122/88/31 120/89/31 118/73/31
f 118/73/31 116/90/31 114/91/31
f 114/91/31 112/92/31 110/93/31
f 110/93/31 108/94/31 106/95/31
f 106/95/31 104/96/31 110/93/31
f 104/96/31 102/62/31 110/93/31
f 102/62/31 100/97/31 110/93/31
f 100/97/31 98/99/31 110/93/31
f 98/99/31 96/100/31 86/63/31
f 96/100/31 94/98/31 86/63/31
f 94/98/57 92/101/57 86/63/57
f 92/101/31 90/102/31 86/63/31
f 90/102/31 88/103/31 86/63/31
f 86/63/31 84/104/31 82/105/31
f 82/105/31 80/106/31 78/72/31
f 78/72/31 76/107/31 74/108/31
f 74/108/31 72/109/31 78/72/31
f 72/109/31 70/64/31 78/72/31
f 118/73/31 114/91/31 110/93/31
f 86/63/31 82/105/31 78/72/31
f 66/84/31 118/73/31 78/72/31
f 118/73/31 110/93/31 86/63/31
f 86/63/31 110/93/31 98/99/31
f 126/65/32 128/67/32 127/66/32
f 128/67/33 66/110/33 65/68/33
f 127/71/34 65/111/34 67/112/34
f 67/112/34 69/113/34 71/114/34
f 71/114/34 73/115/34 75/116/34
f 75/116/34 77/117/34 127/71/34
f 77/117/34 79/118/34 81/119/34
f 127/71/34 77/117/34 109/74/34
f 81/119/34 83/120/34 85/121/34
f 85/121/34 87/122/34 77/117/34
f 87/122/34 89/123/34 91/124/34
f 91/124/34 93/125/34 95/69/34
f 95/69/34 97/126/34 99/127/34
f 99/127/34 101/128/34 103/129/34
f 103/129/34 105/130/34 107/131/34
f 107/131/34 109/74/34 95/69/34
f 109/74/34 111/70/34 113/132/34
f 95/69/34 109/74/34 77/117/34
f 113/132/34 115/133/34 117/134/34
f 117/134/34 119/75/34 109/74/34
f 119/75/34 121/135/34 123/136/34
f 123/136/34 125/137/34 127/71/34
f 127/71/34 67/112/34 71/114/34
f 71/114/34 75/116/34 127/71/34
f 81/119/34 85/121/34 77/117/34
f 87/122/34 91/124/34 95/69/34
f 95/69/34 99/127/34 103/129/34
f 103/129/34 107/131/34 95/69/34
f 113/132/34 117/134/34 109/74/34
f 119/75/34 123/136/34 127/71/34
f 95/69/34 77/117/34 87/122/34
f 130/1/1 132/4/1 131/2/1
f 132/4/50 134/6/50 133/5/50
f 134/6/3 136/8/3 135/7/3
f 136/8/4 138/10/4 137/9/4
f 138/10/5 140/12/5 139/11/5
f 140/12/6 142/14/6 141/13/6
f 142/14/7 144/16/7 143/15/7
f 144/16/51 146/18/51 145/17/51
f 146/18/52 148/20/52 147/19/52
f 148/20/10 150/22/10 149/21/10
f 150/22/11 152/24/11 151/23/11
f 152/24/12 154/26/12 153/25/12
f 154/26/13 156/28/13 155/27/13
f 156/28/14 158/30/14 157/29/14
f 158/30/15 160/32/15 159/31/15
f 160/32/16 162/34/16 161/33/16
f 162/34/17 164/36/17 163/35/17
f 164/36/53 166/38/53 165/37/53
f 166/38/19 168/40/19 167/39/19
f 168/40/20 170/42/20 169/41/20
f 170/42/21 172/44/21 171/43/21
f 172/44/22 174/46/22 173/45/22
f 174/46/23 176/48/23 175/47/23
f 176/48/54 178/50/54 177/49/54
f 178/50/55 180/52/55 179/51/55
f 180/52/26 182/54/26 181/53/26
f 182/54/27 184/56/27 183/55/27
f 184/56/28 186/58/28 185/57/28
f 186/58/29 188/60/29 187/59/29
f 188/60/30 190/65/30 189/61/30
f 134/64/31 132/83/31 142/72/31
f 132/83/31 130/84/31 142/72/31
f 130/84/31 192/85/31 182/73/31
f 192/85/31 190/86/31 182/73/31
f 190/86/56 188/87/56 182/73/56
f 188/87/31 186/88/31 182/73/31
f 186/88/31 184/89/31 182/73/31
f 182/73/31 180/90/31 178/91/31
f 178/91/31 176/92/31 174/93/31
f 174/93/31 172/94/31 170/95/31
f 170/95/31 168/96/31 174/93/31
f 168/96/31 166/62/31 174/93/31
f 166/62/31 164/97/31 174/93/31
f 164/97/31 162/99/31 174/93/31
f 162/99/31 160/100/31 150/63/31
f 160/100/31 158/98/31 150/63/31
f 158/98/57 156/101/57 150/63/57
f 156/101/31 154/102/31 150/63/31
f 154/102/31 152/103/31 150/63/31
f 150/63/31 148/104/31 146/105/31
f 146/105/31 144/106/31 142/72/31
f 142/72/31 140/107/31 138/108/31
f 138/108/31 136/109/31 142/72/31
f 136/109/31 134/64/31 142/72/31
f 182/73/31 178/91/31 174/93/31
f 150/63/31 146/105/31 142/72/31
f 130/84/31 182/73/31 142/72/31
f 182/73/31 174/93/31 150/63/31
f 150/63/31 174/93/31 162/99/31
f 190/65/32 192/67/32 191/66/32
f 192/67/33 130/110/33 129/68/33
f 191/71/34 129/111/34 131/112/34
f 131/112/34 133/113/34 135/114/34
f 135/114/34 137/115/34 139/116/34
f 139/116/34 141/117/34 191/71/34
f 141/117/34 143/118/34 145/119/34
f 191/71/34 141/117/34 173/74/34
f 145/119/34 147/120/34 149/121/34
f 149/121/34 151/122/34 141/117/34
f 151/122/34 153/123/34 155/124/34
f 155/124/34 157/125/34 159/69/34
f 159/69/34 161/126/34 163/127/34
f 163/127/34 165/128/34 167/129/34
f 167/129/34 169/130/34 171/131/34
f 171/131/34 173/74/34 159/69/34
f 173/74/34 175/70/34 177/132/34
f 159/69/34 173/74/34 141/117/34
f 177/132/34 179/133/34 181/134/34
f 181/134/34 183/75/34 173/74/34
f 183/75/34 185/135/34 187/136/34
f 187/136/34 189/137/34 191/71/34
f 191/71/34 131/112/34 135/114/34
f 135/114/34 139/116/34 191/71/34
f 145/119/34 149/121/34 141/117/34
f 151/122/34 155/124/34 159/69/34
f 159/69/34 163/127/34 167/129/34
f 167/129/34 171/131/34 159/69/34
f 177/132/34 181/134/34 173/74/34
f 183/75/34 187/136/34 191/71/34
f 159/69/34 141/117/34 151/122/34
f 194/76/41 196/79/41 195/77/41
f 196/79/42 200/25/42 199/41/42
f 200/25/43 198/81/43 197/80/43
f 198/81/44 194/26/44 193/42/44
f 199/41/34 197/80/34 193/82/34
f 196/9/31 194/138/31 198/81/31
f 202/76/41 204/79/41 203/77/41
f 204/79/42 208/25/42 207/41/42
f 208/25/43 206/81/43 205/80/43
f 206/81/44 202/26/44 201/42/44
f 207/41/34 205/80/34 201/82/34
f 204/9/31 202/138/31 206/81/31
